<svg width="147" height="102" viewBox="0 0 147 102" fill="none" xmlns="http://www.w3.org/2000/svg">
<path fill-rule="evenodd" clip-rule="evenodd" d="M6.05165 1.32017C3.57128 -0.139933 0.5 1.69615 0.5 4.57947V21.5051C0.5 22.8438 1.20064 24.0892 2.34674 24.7625L42.77 48.5751L42.7702 48.5752C44.5739 49.6389 44.5739 52.3047 42.7702 53.3683L42.77 53.3685L2.34622 77.1813L2.34608 77.1814C1.201 77.8564 0.5 79.0993 0.5 80.4385V97.3641C0.5 100.245 3.57104 102.084 6.05179 100.621L6.05196 100.621L84.8018 54.23L84.802 54.2299C87.262 52.7794 87.262 49.1642 84.802 47.7137L84.8018 47.7136L6.05179 1.32026L6.05165 1.32017ZM59.926 4.9154C59.926 2.03208 62.9973 0.196001 65.4776 1.65611L65.4778 1.65619L144.228 48.0495L144.228 48.0496C146.688 49.5001 146.688 53.1153 144.228 54.5658L144.228 54.5659L65.478 100.957L65.4778 100.957C62.997 102.42 59.926 100.581 59.926 97.7V80.7744C59.926 79.4352 60.627 78.1924 61.7721 77.5173L61.7722 77.5172L102.196 53.7044L102.196 53.7043C104 52.6406 104 49.9748 102.196 48.9111L102.196 48.911L61.7727 25.0985C60.6266 24.4252 59.926 23.1797 59.926 21.841V4.9154Z" fill="url(#paint0_linear_75_616)"/>
<defs>
<linearGradient id="paint0_linear_75_616" x1="40.5" y1="6.41907" x2="74.2268" y2="125.943" gradientUnits="userSpaceOnUse">
<stop stop-color="#FF00E5" stop-opacity="0.7"/>
<stop offset="1" stop-color="#0066FF" stop-opacity="0.8"/>
</linearGradient>
</defs>
</svg>
