<svg width="175" height="178" viewBox="0 0 175 178" fill="none" xmlns="http://www.w3.org/2000/svg">
<path d="M154.757 78.8632L158.512 56.9987L138.86 42.1508L121.589 17.0211L99.6253 18.6282L79.5058 9.49761L54.8899 27.1388L31.4617 34.2851L27.7072 56.1496L13.7281 75.4353L20.4484 98.4216L16.6939 120.286L36.3453 135.134L53.6168 160.264L75.5801 158.657L95.6996 167.787L120.316 150.146L143.744 143L147.498 121.135L161.477 101.849L154.757 78.8632ZM138.13 117.033L135.03 135.085L116.704 140.675L94.6077 156.196L77.3485 148.358L58.506 149.741L43.9989 128.634L27.5179 115.854L30.6161 97.8119L24.6544 77.3887L37.0758 60.2519L40.1757 42.1995L58.5016 36.6095L80.6092 21.081L97.8684 28.9185L116.711 27.5352L131.218 48.6427L147.699 61.4222L144.599 79.4746L150.551 99.8961L138.13 117.033Z" fill="url(#paint0_linear_75_571)"/>
<path d="M119.209 59.8043L50.2917 109.194L55.9906 117.486L124.908 68.0961L119.209 59.8043Z" fill="url(#paint1_linear_75_571)"/>
<path d="M68.9133 80.1583C76.9957 81.6032 84.7262 76.0631 86.1433 67.8103C87.5605 59.5575 82.1365 51.6656 74.0541 50.2207C65.9718 48.7757 58.2413 54.3159 56.8241 62.5687C55.407 70.8215 60.831 78.7134 68.9133 80.1583ZM72.3405 60.1999C75.0379 60.6821 76.8432 63.3088 76.3703 66.0631C75.8973 68.8173 73.3243 70.6613 70.6269 70.1791C67.9296 69.6969 66.1242 67.0701 66.5972 64.3159C67.0702 61.5616 69.6432 59.7176 72.3405 60.1999Z" fill="url(#paint2_linear_75_571)"/>
<path d="M106.292 97.1264C98.2096 95.6815 90.4791 101.222 89.0619 109.474C87.6448 117.727 93.0688 125.619 101.151 127.064C109.233 128.509 116.964 122.969 118.381 114.716C119.798 106.463 114.374 98.5713 106.292 97.1264ZM102.865 117.085C100.167 116.603 98.362 113.976 98.835 111.222C99.3079 108.467 101.881 106.623 104.578 107.106C107.276 107.588 109.081 110.215 108.608 112.969C108.135 115.723 105.562 117.567 102.865 117.085Z" fill="url(#paint3_linear_75_571)"/>
<defs>
<linearGradient id="paint0_linear_75_571" x1="100.547" y1="13.2593" x2="73.6267" y2="163.841" gradientUnits="userSpaceOnUse">
<stop stop-color="#FF00E5" stop-opacity="0.7"/>
<stop offset="1" stop-color="#FF7A00" stop-opacity="0.8"/>
</linearGradient>
<linearGradient id="paint1_linear_75_571" x1="84.7503" y1="84.4993" x2="90.61" y2="92.6758" gradientUnits="userSpaceOnUse">
<stop stop-color="#FF00E5" stop-opacity="0.7"/>
<stop offset="1" stop-color="#FF7A00" stop-opacity="0.8"/>
</linearGradient>
<linearGradient id="paint2_linear_75_571" x1="74.0541" y1="50.2207" x2="68.7085" y2="80.1217" gradientUnits="userSpaceOnUse">
<stop stop-color="#FF00E5" stop-opacity="0.7"/>
<stop offset="1" stop-color="#FF7A00" stop-opacity="0.8"/>
</linearGradient>
<linearGradient id="paint3_linear_75_571" x1="106.292" y1="97.1264" x2="100.946" y2="127.027" gradientUnits="userSpaceOnUse">
<stop stop-color="#FF00E5" stop-opacity="0.7"/>
<stop offset="1" stop-color="#FF7A00" stop-opacity="0.8"/>
</linearGradient>
</defs>
</svg>
