<svg width="200" height="205" viewBox="0 0 200 205" fill="none" xmlns="http://www.w3.org/2000/svg">
<path d="M46.3375 174.831L78.0687 142.454C87.95 149.144 99.7812 153.06 112.5 153.06C146.962 153.06 175 124.452 175 89.2878C175 54.124 146.962 25.5159 112.5 25.5159C78.0375 25.5159 50 54.124 50 89.2878C50 102.265 53.8375 114.337 60.3938 124.42L28.6625 156.797C23.7812 161.771 23.7812 169.857 28.6625 174.831C33.5437 179.812 41.4563 179.812 46.3375 174.831ZM112.5 44.6474C136.625 44.6474 156.25 64.6718 156.25 89.2878C156.25 113.904 136.625 133.928 112.5 133.928C88.375 133.928 68.75 113.904 68.75 89.2878C68.75 64.6718 88.375 44.6474 112.5 44.6474Z" fill="url(#paint0_linear_75_617)"/>
<defs>
<linearGradient id="paint0_linear_75_617" x1="141.5" y1="198.976" x2="42.029" y2="27.2367" gradientUnits="userSpaceOnUse">
<stop stop-color="white"/>
<stop offset="1" stop-color="#0066FF" stop-opacity="0.8"/>
</linearGradient>
</defs>
</svg>
