<svg width="150" height="150" viewBox="0 0 150 150" fill="none" xmlns="http://www.w3.org/2000/svg">
<path d="M117.999 32.54L109.453 21.9258C108.452 20.6764 107.181 19.67 105.736 18.9819C104.29 18.2939 102.707 17.9422 101.106 17.9531L39.9521 18.2461C37.1381 18.2646 34.4452 19.3942 32.46 21.3887C30.4748 23.3833 29.3579 26.0814 29.3525 28.8955V121.696C29.3556 124.52 30.479 127.228 32.4761 129.224C34.4733 131.221 37.1809 132.343 40.0049 132.346H109.702C112.526 132.343 115.234 131.221 117.231 129.224C119.228 127.228 120.351 124.52 120.354 121.696V39.2197C120.351 36.7903 119.52 34.4345 117.999 32.54ZM113.71 121.696C113.708 122.759 113.286 123.777 112.534 124.529C111.783 125.28 110.765 125.703 109.702 125.704H40.0049C38.9424 125.703 37.9239 125.28 37.1726 124.529C36.4214 123.777 35.9986 122.759 35.9971 121.696V28.8955C36.004 27.8396 36.4261 26.8288 37.1722 26.0816C37.9183 25.3344 38.9285 24.9108 39.9844 24.9023L101.139 24.6094H101.159C101.758 24.608 102.35 24.742 102.89 25.0012C103.431 25.2604 103.905 25.6382 104.279 26.1065L112.825 36.7207C113.395 37.4344 113.705 38.321 113.704 39.2344L113.71 121.696Z" fill="white"/>
<path d="M98.2735 49.1191H50.2764C49.832 49.1059 49.3895 49.1821 48.975 49.343C48.5606 49.504 48.1827 49.7465 47.8637 50.0561C47.5447 50.3658 47.2911 50.7363 47.1179 51.1458C46.9447 51.5553 46.8555 51.9953 46.8555 52.4399C46.8555 52.8845 46.9447 53.3246 47.1179 53.7341C47.2911 54.1435 47.5447 54.5141 47.8637 54.8238C48.1827 55.1334 48.5606 55.3759 48.975 55.5369C49.3895 55.6978 49.832 55.7739 50.2764 55.7607H98.2735C98.7178 55.7739 99.1604 55.6978 99.5748 55.5369C99.9892 55.3759 100.367 55.1334 100.686 54.8238C101.005 54.5141 101.259 54.1435 101.432 53.7341C101.605 53.3246 101.694 52.8845 101.694 52.4399C101.694 51.9953 101.605 51.5553 101.432 51.1458C101.259 50.7363 101.005 50.3658 100.686 50.0561C100.367 49.7465 99.9892 49.504 99.5748 49.343C99.1604 49.1821 98.7178 49.1059 98.2735 49.1191Z" fill="white"/>
<path d="M98.2734 71.8184H50.2764C49.3952 71.8184 48.5502 72.1684 47.9272 72.7914C47.3041 73.4145 46.9541 74.2595 46.9541 75.1406C46.9541 76.0217 47.3041 76.8668 47.9272 77.4898C48.5502 78.1129 49.3952 78.4629 50.2764 78.4629H98.2734C99.1546 78.4629 99.9996 78.1129 100.623 77.4898C101.246 76.8668 101.596 76.0217 101.596 75.1406C101.596 74.2595 101.246 73.4145 100.623 72.7914C99.9996 72.1684 99.1546 71.8184 98.2734 71.8184Z" fill="white"/>
<path d="M98.2734 94.5205H50.2764C49.3952 94.5205 48.5502 94.8705 47.9272 95.4936C47.3041 96.1166 46.9541 96.9617 46.9541 97.8428C46.9541 98.7239 47.3041 99.5689 47.9272 100.192C48.5502 100.815 49.3952 101.165 50.2764 101.165H98.2734C99.1546 101.165 99.9996 100.815 100.623 100.192C101.246 99.5689 101.596 98.7239 101.596 97.8428C101.596 96.9617 101.246 96.1166 100.623 95.4936C99.9996 94.8705 99.1546 94.5205 98.2734 94.5205Z" fill="white"/>
</svg>
