<svg width="40" height="40" viewBox="0 0 40 40" fill="none" xmlns="http://www.w3.org/2000/svg">
<path d="M0 13.3338C0 12.4498 0.395088 11.6019 1.09835 10.9768C1.80161 10.3517 2.75544 10.0005 3.75 10.0005H26.25C27.2446 10.0005 28.1984 10.3517 28.9016 10.9768C29.6049 11.6019 30 12.4498 30 13.3338V26.6672C30 27.5512 29.6049 28.3991 28.9016 29.0242C28.1984 29.6493 27.2446 30.0005 26.25 30.0005H3.75C2.75544 30.0005 1.80161 29.6493 1.09835 29.0242C0.395088 28.3991 0 27.5512 0 26.6672V13.3338ZM3.75 11.6672C3.25272 11.6672 2.77581 11.8427 2.42417 12.1553C2.07254 12.4679 1.875 12.8918 1.875 13.3338V13.6955L15 20.6955L28.125 13.6955V13.3338C28.125 12.8918 27.9275 12.4679 27.5758 12.1553C27.2242 11.8427 26.7473 11.6672 26.25 11.6672H3.75ZM28.125 15.6388L19.2975 20.3472L28.125 25.1755V15.6388ZM28.0612 27.0988L17.4863 21.3138L15 22.6388L12.5137 21.3138L1.93875 27.0972C2.0453 27.4518 2.28059 27.7653 2.60811 27.9889C2.93562 28.2125 3.33702 28.3338 3.75 28.3338H26.25C26.6627 28.3339 27.0639 28.2129 27.3914 27.9896C27.7189 27.7663 27.9544 27.4532 28.0612 27.0988V27.0988ZM1.875 25.1755L10.7025 20.3472L1.875 15.6388V25.1755Z" fill="#959595"/>
</svg>
