<svg width="25" height="35" viewBox="0 0 25 35" fill="none" xmlns="http://www.w3.org/2000/svg">
<g clip-path="url(#clip0_67_464)">
<path d="M19.4221 1.91101C15.216 -0.635703 9.78128 -0.635703 5.57761 1.91101C0.160205 5.18792 -1.57406 11.5738 1.54416 16.7635L12.4999 35.0004L23.4555 16.7635C26.5738 11.5738 24.842 5.18792 19.4221 1.91101ZM21.292 15.6929L12.5023 30.3258L3.71014 15.6929C1.20866 11.5267 2.59755 6.40417 6.94677 3.77457C8.63416 2.7532 10.5658 2.24027 12.4999 2.24027C14.4339 2.24027 16.3656 2.75096 18.0529 3.77234C22.4022 6.40417 23.7935 11.5267 21.292 15.6929Z" fill="#959595"/>
<path d="M12.5 4.66602C9.10055 4.66602 6.33264 7.17914 6.33264 10.2657C6.33264 13.3522 9.10055 15.8653 12.5 15.8653C15.8994 15.8653 18.6674 13.3522 18.6674 10.2657C18.6674 7.17914 15.9019 4.66602 12.5 4.66602ZM12.5 13.6254C10.4598 13.6254 8.79958 12.118 8.79958 10.2657C8.79958 8.4133 10.4598 6.90587 12.5 6.90587C14.5402 6.90587 16.2004 8.4133 16.2004 10.2657C16.2004 12.118 14.5402 13.6254 12.5 13.6254Z" fill="#959595"/>
</g>
<defs>
<clipPath id="clip0_67_464">
<rect width="25" height="35" fill="white" transform="translate(0 0.000488281)"/>
</clipPath>
</defs>
</svg>
