<svg width="30" height="30" viewBox="0 0 30 30" fill="none" xmlns="http://www.w3.org/2000/svg">
<g clip-path="url(#clip0_67_462)">
<path d="M6.85125 2.49006C6.74056 2.34768 6.60084 2.23047 6.44138 2.14624C6.28191 2.062 6.10635 2.01265 5.92635 2.00148C5.74634 1.99031 5.56603 2.01756 5.39737 2.08144C5.22871 2.14531 5.07557 2.24433 4.94812 2.37194L3.00937 4.31256C2.10375 5.22006 1.77 6.50444 2.16562 7.63132C3.80763 12.2955 6.47868 16.5302 9.98062 20.0213C13.4717 23.5232 17.7064 26.1942 22.3706 27.8363C23.4975 28.2319 24.7819 27.8982 25.6894 26.9926L27.6281 25.0538C27.7557 24.9264 27.8548 24.7732 27.9186 24.6046C27.9825 24.4359 28.0098 24.2556 27.9986 24.0756C27.9874 23.8956 27.9381 23.72 27.8538 23.5606C27.7696 23.4011 27.6524 23.2614 27.51 23.1507L23.1844 19.7869C23.0323 19.669 22.8553 19.5871 22.6669 19.5474C22.4786 19.5078 22.2836 19.5115 22.0969 19.5582L17.9906 20.5838C17.4425 20.7208 16.8683 20.7135 16.3238 20.5627C15.7794 20.4119 15.2832 20.1227 14.8837 19.7232L10.2787 15.1163C9.87894 14.717 9.58936 14.221 9.43821 13.6765C9.28706 13.132 9.27949 12.5577 9.41625 12.0094L10.4437 7.90319C10.4904 7.71643 10.4941 7.52151 10.4545 7.33312C10.4149 7.14473 10.333 6.96781 10.215 6.81569L6.85125 2.49006ZM3.5325 0.95819C3.86061 0.62997 4.2548 0.375309 4.68888 0.211117C5.12297 0.046925 5.58702 -0.0230412 6.05021 0.00586428C6.51341 0.0347698 6.96516 0.161886 7.37546 0.378771C7.78577 0.595657 8.14523 0.897349 8.43 1.26381L11.7937 5.58756C12.4106 6.38069 12.6281 7.41382 12.3844 8.38881L11.3587 12.4951C11.3057 12.7077 11.3086 12.9305 11.3671 13.1418C11.4255 13.353 11.5377 13.5456 11.6925 13.7007L16.2994 18.3076C16.4547 18.4627 16.6475 18.575 16.8592 18.6335C17.0708 18.692 17.2939 18.6947 17.5069 18.6413L21.6112 17.6157C22.0924 17.4954 22.5946 17.486 23.0799 17.5884C23.5652 17.6907 24.0209 17.902 24.4125 18.2063L28.7362 21.5701C30.2906 22.7794 30.4331 25.0763 29.0419 26.4657L27.1031 28.4044C25.7156 29.7919 23.6419 30.4013 21.7087 29.7207C16.761 27.9798 12.2686 25.1473 8.565 21.4332C4.85116 17.7301 2.01864 13.2384 0.277498 8.29132C-0.401252 6.36006 0.208123 4.28444 1.59562 2.89694L3.53437 0.95819H3.5325Z" fill="#959595"/>
</g>
<defs>
<clipPath id="clip0_67_462">
<rect width="30" height="30" fill="white" transform="translate(0 0.000488281)"/>
</clipPath>
</defs>
</svg>
