<svg width="42" height="32" viewBox="0 0 42 32" fill="none" xmlns="http://www.w3.org/2000/svg">
<path d="M9.02832 8.72541V11.3795C9.02832 11.5622 9.12592 11.7315 9.28432 11.8227L15.7522 15.5568C16.0933 15.7539 16.0933 16.2464 15.7522 16.4435L9.28432 20.1776C9.12592 20.2691 9.02832 20.4381 9.02832 20.6208V23.2748C9.02832 23.6688 9.45488 23.9152 9.796 23.7181L22.396 16.4435C22.7371 16.2464 22.7371 15.7539 22.396 15.5568L9.796 8.28189C9.45488 8.08509 9.02832 8.33117 9.02832 8.72541Z" fill="url(#paint0_linear_75_497)"/>
<path d="M22.3962 15.5567L9.79618 8.28187C9.73442 8.24603 9.66978 8.22939 9.60514 8.22107L21.7562 15.2364C22.0973 15.4335 22.0973 15.926 21.7562 16.1231L9.15618 23.398C9.12418 23.4166 9.09058 23.4275 9.05762 23.4383C9.15618 23.7308 9.50594 23.8857 9.79618 23.718L22.3962 16.4435C22.7376 16.2463 22.7376 15.7535 22.3962 15.5567Z" fill="url(#paint1_linear_75_497)"/>
<path d="M9.02832 8.72541V11.3795C9.02832 11.5622 9.12592 11.7315 9.28432 11.8227L15.7522 15.5568C16.0933 15.7539 16.0933 16.2464 15.7522 16.4435L9.28432 20.1776C9.12592 20.2691 9.02832 20.438 9.02832 20.6208V23.2748C9.02832 23.6688 9.45488 23.9152 9.796 23.7181L22.396 16.4435C22.7371 16.2464 22.7371 15.7539 22.396 15.5568L9.796 8.28189C9.45488 8.08509 9.02832 8.33117 9.02832 8.72541Z" stroke="url(#paint2_linear_75_497)" stroke-miterlimit="10"/>
<path d="M19.0283 8.72541V11.3795C19.0283 11.5622 19.1259 11.7315 19.2843 11.8227L25.7522 15.5568C26.0933 15.7539 26.0933 16.2464 25.7522 16.4435L19.2843 20.1776C19.1259 20.2691 19.0283 20.4381 19.0283 20.6208V23.2748C19.0283 23.6688 19.4549 23.9152 19.796 23.7181L32.396 16.4435C32.7371 16.2464 32.7371 15.7539 32.396 15.5568L19.796 8.28189C19.4549 8.08509 19.0283 8.33117 19.0283 8.72541Z" fill="url(#paint3_linear_75_497)"/>
<path d="M32.3962 15.5567L19.7962 8.28187C19.7344 8.24603 19.6698 8.22939 19.6051 8.22107L31.7562 15.2364C32.0973 15.4335 32.0973 15.926 31.7562 16.1231L19.1562 23.398C19.1242 23.4166 19.0906 23.4275 19.0576 23.4383C19.1562 23.7308 19.5059 23.8857 19.7962 23.718L32.3962 16.4435C32.7376 16.2463 32.7376 15.7535 32.3962 15.5567Z" fill="url(#paint4_linear_75_497)"/>
<path d="M19.0283 8.72541V11.3795C19.0283 11.5622 19.1259 11.7315 19.2843 11.8227L25.7522 15.5568C26.0933 15.7539 26.0933 16.2464 25.7522 16.4435L19.2843 20.1776C19.1259 20.2691 19.0283 20.438 19.0283 20.6208V23.2748C19.0283 23.6688 19.4549 23.9152 19.796 23.7181L32.396 16.4435C32.7371 16.2464 32.7371 15.7539 32.396 15.5568L19.796 8.28189C19.4549 8.08509 19.0283 8.33117 19.0283 8.72541Z" stroke="url(#paint5_linear_75_497)" stroke-miterlimit="10"/>
<defs>
<linearGradient id="paint0_linear_75_497" x1="15.8401" y1="8.21265" x2="15.8401" y2="23.7874" gradientUnits="userSpaceOnUse">
<stop stop-color="#4985FF"/>
<stop offset="0.489583" stop-color="#FF00E5" stop-opacity="0.7"/>
<stop offset="1" stop-color="#FF7A00"/>
</linearGradient>
<linearGradient id="paint1_linear_75_497" x1="15.8549" y1="8.22107" x2="15.8549" y2="23.7871" gradientUnits="userSpaceOnUse">
<stop stop-color="#4985FF"/>
<stop offset="0.489583" stop-color="#FF00E5" stop-opacity="0.7"/>
<stop offset="1" stop-color="#FF7A00"/>
</linearGradient>
<linearGradient id="paint2_linear_75_497" x1="15.8401" y1="8.21265" x2="15.8401" y2="23.7874" gradientUnits="userSpaceOnUse">
<stop stop-color="#4985FF"/>
<stop offset="0.489583" stop-color="#FF00E5" stop-opacity="0.7"/>
<stop offset="1" stop-color="#FF7A00"/>
</linearGradient>
<linearGradient id="paint3_linear_75_497" x1="25.8401" y1="8.21265" x2="25.8401" y2="23.7874" gradientUnits="userSpaceOnUse">
<stop stop-color="#4985FF"/>
<stop offset="0.489583" stop-color="#FF00E5" stop-opacity="0.7"/>
<stop offset="1" stop-color="#FF7A00"/>
</linearGradient>
<linearGradient id="paint4_linear_75_497" x1="25.8549" y1="8.22107" x2="25.8549" y2="23.7871" gradientUnits="userSpaceOnUse">
<stop stop-color="#4985FF"/>
<stop offset="0.489583" stop-color="#FF00E5" stop-opacity="0.7"/>
<stop offset="1" stop-color="#FF7A00"/>
</linearGradient>
<linearGradient id="paint5_linear_75_497" x1="25.8401" y1="8.21265" x2="25.8401" y2="23.7874" gradientUnits="userSpaceOnUse">
<stop stop-color="#4985FF"/>
<stop offset="0.489583" stop-color="#FF00E5" stop-opacity="0.7"/>
<stop offset="1" stop-color="#FF7A00"/>
</linearGradient>
</defs>
</svg>
