<svg width="100" height="101" viewBox="0 0 100 101" fill="none" xmlns="http://www.w3.org/2000/svg">
<path d="M82.7907 59.5829C86.1628 56.7922 88.3721 52.4898 88.3721 47.7224C88.3721 39.6991 81.8605 32.6061 74.4186 32.6061C66.9767 32.6061 60.4651 39.6991 60.4651 47.7224C60.4651 52.4898 62.6744 56.7922 66.0465 59.5829C64.5349 60.1643 63.1395 60.7457 61.7442 61.5596C57.3256 56.327 51.5116 52.2573 44.7674 50.2805C49.8837 46.6759 53.4884 40.5131 53.4884 33.7689C53.4884 23.1875 44.7674 14.0015 34.8837 14.0015C25 14.0015 16.2791 23.1875 16.2791 33.7689C16.2791 40.5131 19.8837 46.6759 25 50.2805C10.5814 54.5829 0 67.955 0 83.7689C0 85.048 1.04651 86.0945 2.32558 86.0945H97.6744C98.9535 86.0945 100 85.048 100 83.7689C100 72.6061 92.7907 63.0712 82.7907 59.5829ZM65.1163 47.7224C65.1163 42.8387 69.186 37.2573 74.4186 37.2573C79.6512 37.2573 83.7209 42.8387 83.7209 47.7224C83.7209 52.6061 79.6512 58.1875 74.4186 58.1875C69.186 58.1875 65.1163 52.6061 65.1163 47.7224ZM20.9302 33.7689C20.9302 26.6759 26.8605 18.6526 34.8837 18.6526C42.907 18.6526 48.8372 26.6759 48.8372 33.7689C48.8372 40.8619 42.907 48.8852 34.8837 48.8852C26.8605 48.8852 20.9302 40.8619 20.9302 33.7689ZM4.76744 81.4433C5.93023 65.8619 19.0698 53.5364 34.8837 53.5364C50.8139 53.5364 63.8372 65.8619 65 81.4433H4.76744ZM69.6512 81.4433C69.3023 75.6294 67.4419 70.048 64.4186 65.3968C67.4419 63.7689 70.8139 62.8387 74.4186 62.8387C85.2326 62.8387 94.0698 70.9782 95.2326 81.4433H69.6512Z" fill="white"/>
</svg>
