<svg width="100" height="99" viewBox="0 0 100 99" fill="none" xmlns="http://www.w3.org/2000/svg">
<path d="M97.4804 41.9912L87.8738 24.075C87.2054 22.8418 86.0691 21.9116 84.7068 21.4822C83.3446 21.0529 81.864 21.1584 80.5805 21.7763L71.3215 26.2847H64.568L51.5251 20.5371C50.3357 20.0136 48.9934 19.9212 47.7402 20.2765L28.4338 25.7578L19.4195 21.3688C18.136 20.7509 16.6555 20.6454 15.2933 21.0747C13.9311 21.5039 12.7947 22.4341 12.1262 23.6671L2.5196 41.5837C2.18342 42.2106 1.97884 42.8965 1.91779 43.6013C1.85674 44.306 1.94045 45.0156 2.16403 45.6885C2.38761 46.3614 2.74658 46.9842 3.21999 47.5206C3.69339 48.0569 4.27176 48.4961 4.92133 48.8124L14.3665 53.4116L35.5331 69.5305C36.1361 69.9908 36.8321 70.3219 37.5755 70.502L60.215 76.014C60.6448 76.1183 61.0861 76.171 61.5291 76.1707C62.9828 76.171 64.3776 75.611 65.4087 74.613L79.7825 60.6146C79.7939 60.6035 79.8042 60.5913 79.8153 60.58C79.8304 60.5646 79.845 60.5488 79.8597 60.533C79.8752 60.5164 79.8916 60.5007 79.9065 60.4837L85.8475 53.7151L95.0787 49.2201C95.7282 48.9038 96.3066 48.4646 96.78 47.9282C97.2534 47.3919 97.6124 46.7691 97.836 46.0961C98.0596 45.4232 98.1433 44.7136 98.0822 44.0088C98.0212 43.3041 97.8166 42.6182 97.4804 41.9912H97.4804ZM77.7513 55.9136L62.3161 44.9813C61.9108 44.6942 61.4216 44.5412 60.9204 44.5448C60.4192 44.5484 59.9323 44.7084 59.5314 45.0013L54.5315 48.6534C52.77 49.9296 50.633 50.6189 48.4375 50.6189C46.242 50.6188 44.1049 49.9295 42.3435 48.6532L40.226 47.1068C40.1365 47.0413 40.0625 46.9579 40.009 46.8622C39.9555 46.7665 39.9237 46.6607 39.9158 46.552C39.9079 46.4433 39.924 46.3342 39.9631 46.2321C40.0022 46.13 40.0634 46.0373 40.1424 45.9602L55.4294 31.0726C55.5763 30.9304 55.7747 30.8503 55.9818 30.8497H64.0501L64.061 30.8502L64.069 30.8497H70.4548L81.5645 51.5694L77.7513 55.9136ZM6.62382 44.283C6.59161 44.1869 6.5795 44.0855 6.58822 43.9848C6.59693 43.8841 6.62629 43.7861 6.67455 43.6966L16.2811 25.78C16.348 25.6567 16.4481 25.5536 16.5707 25.4818C16.6933 25.4099 16.8338 25.372 16.9769 25.3723C17.097 25.3721 17.2155 25.3993 17.3229 25.4518L24.9431 29.1621L14.6133 48.4279L7.01789 44.7292C6.92493 44.6842 6.84217 44.6216 6.77449 44.5449C6.7068 44.4683 6.65557 44.3793 6.62382 44.283ZM62.0945 71.3847C61.9988 71.4774 61.8802 71.5445 61.7501 71.5796C61.62 71.6147 61.4828 71.6165 61.3518 71.5849L38.7119 66.0729C38.6059 66.0472 38.5068 66 38.4209 65.9343L18.6056 50.8445L29.6997 30.1536L49.052 24.6592C49.2312 24.6086 49.4229 24.6217 49.593 24.6963L54.0129 26.644C53.301 26.9104 52.6545 27.3195 52.1153 27.8446L36.8282 42.7322C36.2742 43.2717 35.8457 43.9209 35.5717 44.6358C35.2977 45.3507 35.1846 46.1145 35.2402 46.8757C35.2957 47.6368 35.5185 48.3774 35.8935 49.0474C36.2685 49.7173 36.787 50.301 37.4138 50.7589L39.5313 52.3052C42.1055 54.1707 45.2288 55.1782 48.4375 55.1782C51.6462 55.1782 54.7694 54.1707 57.3437 52.3052L60.9588 49.6648L74.5283 59.2756L62.0945 71.3847ZM93.3762 44.6907C93.3444 44.787 93.2932 44.876 93.2255 44.9527C93.1578 45.0293 93.0751 45.092 92.9821 45.1369L85.3867 48.8356L75.0568 29.5699L82.6771 25.8593C82.8604 25.771 83.072 25.7559 83.2666 25.8173C83.4612 25.8787 83.6235 26.0117 83.7189 26.1879L93.3254 44.1041C93.3737 44.1937 93.403 44.2917 93.4118 44.3924C93.4205 44.4932 93.4084 44.5946 93.3762 44.6907ZM46.0239 82.3793C45.9494 82.6702 45.8168 82.9439 45.6336 83.1848C45.4504 83.4258 45.2202 83.6292 44.9562 83.7834C44.6923 83.9377 44.3997 84.0398 44.0952 84.0838C43.7907 84.1279 43.4802 84.1131 43.1816 84.0403L31.4083 81.1741C30.5725 80.9692 29.7978 80.576 29.1466 80.0262L20.3373 72.569C20.1042 72.3726 19.9131 72.1333 19.7751 71.8649C19.637 71.5965 19.5547 71.3042 19.5328 71.0047C19.511 70.7053 19.55 70.4045 19.6476 70.1198C19.7453 69.835 19.8996 69.5718 20.1019 69.3453C20.3041 69.1187 20.5503 68.9332 20.8262 68.7994C21.1022 68.6656 21.4025 68.5862 21.7101 68.5656C22.0176 68.545 22.3263 68.5837 22.6185 68.6795C22.9106 68.7753 23.1805 68.9262 23.4127 69.1237L32.2224 76.5813C32.3158 76.6602 32.427 76.7166 32.547 76.7458L44.3184 79.6112C44.9214 79.7581 45.4399 80.1322 45.7597 80.6513C46.0795 81.1704 46.1746 81.792 46.0239 82.3793Z" fill="white"/>
</svg>
