<svg width="150" height="147" viewBox="0 0 150 147" fill="none" xmlns="http://www.w3.org/2000/svg">
<path d="M77.295 85.0734L53.943 101.595C53.738 101.74 53.4912 101.818 53.2379 101.818C52.9847 101.818 52.7379 101.74 52.5329 101.595C52.328 101.45 52.1754 101.246 52.097 101.011C52.0186 100.776 52.0184 100.524 52.0965 100.289L61.0155 73.5564C61.094 73.3215 61.094 73.0684 61.0155 72.8335C60.9371 72.5986 60.7843 72.394 60.579 72.2489L37.2285 55.7258C37.023 55.5809 36.8699 55.3763 36.7913 55.1414C36.7127 54.9065 36.7125 54.6534 36.7908 54.4184C36.8692 54.1834 37.0219 53.9786 37.2272 53.8334C37.4325 53.6883 37.6798 53.6102 37.9335 53.6105H66.798C67.0515 53.6105 67.2985 53.5324 67.5036 53.3873C67.7086 53.2421 67.8612 53.0375 67.9395 52.8027L76.8585 26.0699C76.9367 25.835 77.0893 25.6303 77.2944 25.4851C77.4994 25.3399 77.7465 25.2617 78 25.2617C78.2535 25.2617 78.5006 25.3399 78.7057 25.4851C78.9107 25.6303 79.0633 25.835 79.1415 26.0699L88.0605 52.8027C88.1388 53.0375 88.2914 53.2421 88.4964 53.3873C88.7015 53.5324 88.9485 53.6105 89.202 53.6105H118.067C118.32 53.6102 118.567 53.6883 118.773 53.8334C118.978 53.9786 119.131 54.1834 119.209 54.4184C119.287 54.6534 119.287 54.9065 119.209 55.1414C119.13 55.3763 118.977 55.5809 118.772 55.7258L95.421 72.2475C95.2157 72.3925 95.0629 72.5972 94.9845 72.8321C94.906 73.067 94.9061 73.32 94.9845 73.5549L103.904 100.288C103.982 100.522 103.981 100.775 103.903 101.01C103.825 101.244 103.672 101.449 103.467 101.593C103.262 101.738 103.015 101.816 102.762 101.817C102.509 101.817 102.262 101.739 102.057 101.594L87.6735 91.0437" stroke="white" stroke-width="4" stroke-miterlimit="10" stroke-linecap="round"/>
</svg>
