<svg width="100" height="101" viewBox="0 0 100 101" fill="none" xmlns="http://www.w3.org/2000/svg">
<path d="M78.666 21.7414L72.9688 14.6652C72.3014 13.8323 71.4541 13.1613 70.4903 12.7026C69.5266 12.244 68.4716 12.0095 67.4043 12.0168L26.6348 12.2121C24.7587 12.2244 22.9635 12.9775 21.64 14.3072C20.3165 15.6369 19.5719 17.4356 19.5684 19.3117V81.1789C19.5704 83.0615 20.3194 84.8664 21.6508 86.1975C22.9822 87.5285 24.7873 88.2769 26.6699 88.2785H73.1348C75.0174 88.2769 76.8225 87.5285 78.1539 86.1975C79.4853 84.8664 80.2343 83.0615 80.2363 81.1789V26.1945C80.2338 24.5749 79.68 23.0043 78.666 21.7414ZM75.8066 81.1789C75.8056 81.8872 75.5238 82.5662 75.0229 83.067C74.5221 83.5679 73.8431 83.8497 73.1348 83.8508H26.6699C25.9616 83.8497 25.2826 83.5679 24.7818 83.067C24.2809 82.5662 23.9991 81.8872 23.998 81.1789V19.3117C24.0026 18.6077 24.2841 17.9339 24.7815 17.4357C25.2789 16.9376 25.9523 16.6552 26.6562 16.6496L67.4258 16.4543H67.4395C67.8389 16.4534 68.2334 16.5427 68.5936 16.7155C68.9538 16.8883 69.2703 17.1402 69.5195 17.4523L75.2168 24.5285C75.5968 25.0043 75.8035 25.5953 75.8027 26.2043L75.8066 81.1789Z" fill="white"/>
<path d="M65.5156 32.7939H33.5176C33.2213 32.7851 32.9263 32.8359 32.65 32.9432C32.3737 33.0505 32.1218 33.2122 31.9091 33.4186C31.6964 33.625 31.5274 33.8721 31.4119 34.1451C31.2965 34.418 31.237 34.7114 31.237 35.0078C31.237 35.3042 31.2965 35.5976 31.4119 35.8706C31.5274 36.1435 31.6964 36.3906 31.9091 36.597C32.1218 36.8035 32.3737 36.9651 32.65 37.0724C32.9263 37.1797 33.2213 37.2305 33.5176 37.2217H65.5156C65.8119 37.2305 66.1069 37.1797 66.3832 37.0724C66.6595 36.9651 66.9114 36.8035 67.1241 36.597C67.3368 36.3906 67.5058 36.1435 67.6213 35.8706C67.7367 35.5976 67.7962 35.3042 67.7962 35.0078C67.7962 34.7114 67.7367 34.418 67.6213 34.1451C67.5058 33.8721 67.3368 33.625 67.1241 33.4186C66.9114 33.2122 66.6595 33.0505 66.3832 32.9432C66.1069 32.8359 65.8119 32.7851 65.5156 32.7939Z" fill="white"/>
<path d="M65.5156 47.9268H33.5176C32.9302 47.9268 32.3668 48.1601 31.9514 48.5755C31.5361 48.9908 31.3027 49.5542 31.3027 50.1416C31.3027 50.729 31.5361 51.2924 31.9514 51.7077C32.3668 52.1231 32.9302 52.3564 33.5176 52.3564H65.5156C66.103 52.3564 66.6664 52.1231 67.0818 51.7077C67.4971 51.2924 67.7305 50.729 67.7305 50.1416C67.7305 49.5542 67.4971 48.9908 67.0818 48.5755C66.6664 48.1601 66.103 47.9268 65.5156 47.9268Z" fill="white"/>
<path d="M65.5156 63.0615H33.5176C32.9302 63.0615 32.3668 63.2949 31.9514 63.7102C31.5361 64.1256 31.3027 64.689 31.3027 65.2764C31.3027 65.8638 31.5361 66.4271 31.9514 66.8425C32.3668 67.2579 32.9302 67.4912 33.5176 67.4912H65.5156C66.103 67.4912 66.6664 67.2579 67.0818 66.8425C67.4971 66.4271 67.7305 65.8638 67.7305 65.2764C67.7305 64.689 67.4971 64.1256 67.0818 63.7102C66.6664 63.2949 66.103 63.0615 65.5156 63.0615Z" fill="white"/>
</svg>
